<mxfile host="app.diagrams.net" modified="2023-02-21T07:25:56.818Z" agent="5.0 (Windows NT 10.0; Win64; x64) AppleWebKit/537.36 (KHTML, like Gecko) Chrome/110.0.0.0 Safari/537.36" etag="HyqpvwQNqAtIGf8PF1Cq" version="20.8.20" type="github">
  <diagram name="第 1 页" id="DYrzvRU1nwbpjVwLnzVf">
    <mxGraphModel dx="648" dy="541" grid="1" gridSize="10" guides="1" tooltips="1" connect="1" arrows="1" fold="1" page="1" pageScale="1" pageWidth="540" pageHeight="200" math="0" shadow="0">
      <root>
        <mxCell id="0" />
        <mxCell id="1" parent="0" />
        <mxCell id="XOfK6adOxOdlZIG90nea-1" value="" style="rounded=1;whiteSpace=wrap;html=1;fontFamily=Comic Sans MS;fontSize=12;dashed=1;arcSize=2;" parent="1" vertex="1">
          <mxGeometry x="6" y="6" width="485" height="176" as="geometry" />
        </mxCell>
        <mxCell id="a0m1b-ZxAtpMWGiJwPaL-1" value="" style="shape=image;imageAspect=0;aspect=fixed;verticalLabelPosition=bottom;verticalAlign=top;image=data:image/jpeg,/9j/4AAQSkZJRgABAQAAAQABAAD/2wBDAAoHBwgHBgoICAgLCgoLDhgQDg0NDh0VFhEYIx8lJCIfIiEmKzcvJik0KSEiMEExNDk7Pj4+JS5ESUM8SDc9Pjv/2wBDAQoLCw4NDhwQEBw7KCIoOzs7Ozs7Ozs7Ozs7Ozs7Ozs7Ozs7Ozs7Ozs7Ozs7Ozs7Ozs7Ozs7Ozs7Ozs7Ozs7Ozv/wAARCAKKAggDASIAAhEBAxEB/8QAGwABAAIDAQEAAAAAAAAAAAAAAAECAwQFBgf/xABJEAACAQIEAwQIAgYGCQQDAAAAAQIDEQQFEiExQVEGE2GRFCIyQlJxgaEHUxVigpKx0SNDVJPB8BYXJDNEcoPh8SU0VWOistL/xAAaAQEBAAMBAQAAAAAAAAAAAAAAAQIDBAUG/8QAJREBAAICAgIDAAEFAAAAAAAAAAECAxESIQQxBTJBE0JRYXGB/9oADAMBAAIRAxEAPwD7MAAAAAAAAAAAAAAAAAAAAAAAAAAAAAAAAAAAAAAAAAAAAAAAAAAAAAAAAAAAAAAAAAAAAAAAAAAAAAAAAAAAAAAAAAAAAAAAAAAAAAAAAAAAAAAAAAAAAAAAAAAAAAAAAAAAAAAAAAAAAAAAAAAAAAAAAAAAAAAAAAAAAAAAAAAAAAAAAAAAAAAAAAAAAAAAAAAAAAAAAAAAAAAAAAAAAAAAAAAAAAAAAAAAAAAAAAAAAAAAAAAAAAAAAAAAAAAAAAAAAAAAAAAAAAAAAAAAAAAAAAAAAAAAAAAAAAAAAAAAAAAAAAAAAAAAAAAAAAAAAAAAAAAAAAAAAAAAAAAAAAAAAAAAAAAAAAAAAAAAAAAAAAAAAAAAAAAAAAAAAAAAAAAAAAAAAAAAAAAAAAAAAAAAAAAAAAAAAAAAAAAAAAAAAAAAAAAAAAAAAAAAAAAAAAAAAAAAAAAAAAAAAAAAAAAAAAAAAAAAAAAAAAAAAAAAAAAAAAAAAAAAAAAAAAAAAAAAAAAAAAAAAAAAAAAAAAAAAAAAAAAAAAAAAAAAAAAAAAAAAAAAAAAAAAAAAAAAAAAAAAAAAAAAAAAAAAAAAAAAAAAAAAAAAAAAAAAAAAAAAAAAAAAAAAAAAAAAAAAAAAAAAAAAAAAAAAAAAAAAAAAAAAAAAAAAAAAAAAAAAAAAAAAAAAAAAAAAAAAAAAAAAAAAAAAAAAAAAAAAAAAAAAAAAAAAAAAAAAAAAAAAAAAAAAAAAAAAAAAAAAAAAAAAAAAAAAAAAAAAAAAAAAAAAAAAAAAAAAAAAAAAAAAAAAAAAAAAAAAAAAAAAAAAAAAAAAAAAAAAAAAAAAAAAAAAAAAAAAAAAAAAAAAAAAAAAAAAAAAAAAAAAAAAAAAAAAAAAAAAAAAAAAAAAAAAAAAAAAAAAAAAAAAAAAAAAAAAAAAAAAAAAAAAAAAAAAAAAAAAAAAAAAAAAAAAAAAAAAAAAAAAAAAAAAAAAAAAAAAAAAAAAAAAAAAAAAAAAAAAAAAAAAAAAAAAAAAAAAAAAAAAAAAAAAAAAAAAAAAAAAAAAAAAAAAAAAAAAAAAAAAAAAAAAAAAAAAAAAAAAAAAAAAAAAAAAAAAAAAAAAAAAAAAAAAAAAAAAAAAAAAAAAAAAAAAAAAAAAAAAAAAAAAAAAAAAAAAAAAAAAAAAAAAAAAAAAAAAAAAAAAAAAAAAAAAAAAAAAAAAAAAAAAAAAAAAAAAAAAAAAAAAAAAAAAAAAAAAAAAAAAAAAAAAAAAAAAAAAAAAAAAAAAAAAAAAAAAAAAAAAAAAAAAAAAAAAAAAAAAAAAAAAAAAAAAAAAAAAAAAAAAAAAAAAAAAAAAAAAAAAAAAAAAAAAAAAAAAAAAAAAAAAAAAAAAAAAAAAAAAAAAAAAAAAAAAAAAAAAAAAAAAAAAAAAAAAAAAAAAAAAAAAAAAAAAAAAAAAAAAAAAAAAAIJAAAAAAAAAAhuwTT4O4EgAAAAAAAAAAAAAAAAAAAAAAAAAAAAAAAAAAAAAAAAAAAAAAAAAAAAAAAAAAAAAAAAAAAAAAAhtJNt2SMTq3jqV7GKvU72r3MX6sd5srUnZbcANii7ptyu78DKcvW73X2JVSa9+S+oHTBze+q/GyjrVL7zfmB1G0uLKupBe8jmd42tm/qRrvwkvqB0nXpr3jFPGwjwNBy8SjhxepeYG1VxrntF2NjAtunK/xHKdrbyT+jOnlz/opLowNwAAAAAAAAAAAAAAAAAAAAAAAAAAAAAAAAAAAAAAAAAAAAAAAAAAAAAAAAAAAAAAAAAAAQ3YjUBYx1G9LUHv1Dk2VuBiklThZfV9TWqS1eyZq0rfI1X1AlX57fQarf+Rfbj9yrk77f4EEuSvy8ybQ4/4mPVJc/uNUuq8wLtxv/wByuuK5lXKXh5kPV9foBbvF1+5WVS+y/iRv/loi0r8f4FExT5L7nQwDcakovmrmnFW4y+5sYeShUTTuyjpAjiSQAAAAAAAAAAAAAAAAAAAAAAAAAAAAAAAAAAAAAAAAAAAAAAAAAAAAAAAAAQ2kV7xdALlZSsQ6nQpJ3W4Eqrd7NE6mzXqUlNXheMrbNGCljnCfd11aS5gbze/EXRS8ZK99nzRDg+Kl/wBwMhDRiXK7v0ZaU1Hd3+QGKtBtPkak1OL3j5dDfUn7Uto8jG406i9X7AaDqfMjVfg/4G3KjTk2vWv/AAMUsPpfP6bkGJP5k28H5l9KXutk6WuLYGOwsujMlmRZ+HkUUsv8oWXJfYtZ9E/oLPmrAEo9PsZ6T5KPmzCoSv7K8jPTjLa+yKNyjPZRlx5GY01KN7QV+sjNTq32fn1IMwIJAAAAAAAAAAAAAAAAAAAAAAAAAAAAAAAAAAAAAAAAAAAAAAAIIc0uYEkal1KTk2tuPIwup3bSqWafvIDZc0uZXvOiMbd1s/EhVIx4sC87y2Ts+pRVLS0y2fJ9SVO6v13KVJN8gLT5SvZIjvY6rXRhqSvTst79DBhoyhOc68lbhG38QN1Ss2t+qMWIpwrxWqJZySSb5fdEOWpXim4vm9gNBVa2Dnpd5U+qXI3qNVSSle0ZcnyKSV161rr3VvcjRyUXBPg2Bncrvbi+KuQvV4u75GONrXjF77OTCfwp9HIC0m17f0SMcnJQ2joV+haMkpWgm3wch6ur2nKT2fQDH38ZPTJ7rmZFU5T3vz5FZRhN6HFp9UY3Sq03pSTj4vcDY0xe6sVcLf8AYwKcovmmZFX6r5AHG3LgQ4L/ACi3eJ8Lrpcaov5dLcgKaPBkqmuhbUuq8hrS9mKfJATpUE+ZMbzdlw5sooyk1e/yMt1HaPHoAk4wWlJXt5iEW3eW7YipXi5bvxLarRsuoGeFSz0szHNnJ348Lm7Qqd5ST5rZgZQAAAAAAAAAAAAAAAAAAAAAAAAAAAAAAAAAAAIbS4sCQV1LqY5Vkna6AzAxKcnwsQ6jtu7eAGSU0jC6213dLqyb7Xf0Kub3SQFnJyWzvfgQpRj7UkY4tp2sY3SU6yqVJuy93qBspp+s+fAo3sNV/Z3S6FZPfjbmgKrpYwdzKpiO8nO0PhtzNiTbd1z5sjVurtO+1kBZyUdny6INvkk/nsUvpV7KNuPVkbSW15tc+QCTjdJt78NJD1RSlH1FwafFk3snFyjFPdKPEhcbqHHbVJgE201FuUl7zQum7SnqvwjFFXPrKUnHlHgG2k/WjTXFLmBa7VnpjDk3zKbb6dU3F3uRdPeMHO/vS4ETnwc52/ViBaTV7Tbu+EYkSateTcU+SKq9rRWi3OXEJrV6r1y8eQFtTkr6tMfuXjJtNQaUebMTaT9d6n0Jd5bz2XTgBfWmratubGppeq2l1fMom2tkox8VuVvzlJWXDcDJs1aUbPoiFRT3jLboit7/APM+FiUm3e9muC6gO6kuFy3dte07C6jdu6fC5SriaWHpudWrCMFznKwGXu+d7/UJO93t8jy+dfiH2fyWOqpiZV6l2lCgtW68Tx+afjDi5xnLK8u00IxV600203y6A1t9YclGN3JRglu29jhZl257N5TV7mvmVOVVL2KfrW+b4I+M1M27W9uMVKhh/ScTGSSlSpN93HxfJHq8r/C/LcooQzDtdmMZK6Sw9NvS5PgrreT8EgOj/rPzfPcSsJ2UyKdae+qpW3jHx22X1Z73L3j/ANGYf9KKisY4rvVRbcFLwOVhM1yjLsLSo5XhYwwTS0KhDad0+CW7d1Z36O5nwubVcfio0qPd0kneUW3OVum20QOrffbfc2MFO03D4ldGs39NyIV1Tqwau7Pe3BIDrghO6JAAAAAAAAAAAAAAAAAAAAAAAAAAAACL2KSqxXO/yAyEXMLqyd7bIxu/G7A2HUivEx61JuTexhlqa2ZSnSevXJN8rcgNjeW97L+JElBwcdK+pGtuKutL4WKq+nd/YCYvQml/ExqleprnKVl7pe+3Xk2yE/rYC8vDfoVbj4/Qi9+G/wAuB4Ttd25nSxkchyH+nx1WoqdSdN7U2/dT+Lq+QHtKeOw1evVoUq8JVaVlUindxvwv5MzLrx8Wcjs1kVHIMqhho2lWk3OtWlvKpN8X/I619Tsk3tzAtq6u7T5EN6eaVuXMhtXs5ceUUOG/qx5O/EA+dk3be7ZDle6clZ72iiL3a9WUrdeAbceMlG3JIAlbdQST5yZGrhecpcmlwIave0G77pydg5JbOez5QQE7w+CFuF92VemTdlKpfnwQ34xha2zcmQ2ns5uTXBQASk0k5SUFw0x4lU3xhG8o8ZTJV0vVgoJ76pblXUjtrqOfWK4AJWe0536KBKvb1aehS5v+RW8o+zCMOjb3KtKTftzv42AmUo+9Uc7crbE6pWs2oRI3Tu5KHgluQtLd4x1P4pASpJP1I38WN2721Px4GKvisPho6sRWhC3WVjz2Y/iH2ey9uEsYqklKzhRWpr6Aenav7Tb/AFVwFo81H5HzrHfitBpxyzLK03w11rQXz/yjzWN7Z9pMelrxscOulCO/32+xWyuK9vUPsWJzLCYKEpYrE06SSu3KS2R5bN/xQyPL4RWFcsfUfCNC23i3yPl2JliMdNSxuJr4l/8A3TbX0XAxt0MO0tUV0ildv6IN8eLMd2nT1OY/ifn2YUJ0cDhoYJyl6tW6bUfk77nmcdi80zFU6uaZlVnGkm1K9vN82dbKOymf53JPD4JYShLfv8UrfVR5/c9jln4f5Dlq7/M6zzTEw3am/VjZXfqLw33HTGZw09dvneUZFi82rf8ApOV1Ma7+tXqpqmvm3xPeZV+GlCKp1e0WPeJepacLRbhSi27cOfE9ZTxdWdJwynD0O5UJqnpdkpRdktlZXW6vyNihgJzrd/iIU3KUJRk2vXlF2ai/GL2DVa82cnH5vhez0MbleX5esJCjhVKOJpxSp06klJQU+l3H2ntfiaOBoSzDFYSrk2IxlSeFgsRUq5k6kod7bTotLdNqUneLsrI79Xszl+Kx3pmMp1MRVlCEZxnN93LTfS3Dg3u+Nzp6owiopKy4JLgGtzsJk9SVHVmlZVq8qk6ko0m1CKla0FffSrebb5nRpqlQjGnShCKXuxVkikpTbfJIbr6IgyK8ram7b7IlJeC26WMadtrchd8Ffh1A62Eqa6KT4x2M5zcBUarOHKS+6OkAAAAAAAAAAAAAAAAABDaSu3ZGvPFJu0F9QNki66mn3spO7b6k368kBta4r3kVdaC8TXvbfoib8bdAMrrdIlXVm+dinUo6tNK7mrN6dnzAyNt3vuOTMbqesoqEne+9tlYiM5tK8FHqtV7AZepD5/MxpVbetNXTv6sbXXTcKFlJOTkpO/rSvbwAlzhF6ZTV3uk3uY1iIzwrr0IutFx1RUdtXmTCjSgoKFOK0R0xtHdLpcvfqvNgYZPEzdSMHTpK0dEvad+d19iZUIzdTvJSlGbT0yl7NulvMyX4cX8lYi9uaXy3YFnvy485C91feX2RXhva3jJnj+2vafFYOrTyHJm6mZ4uN5VEtsPT5y+fQkzrtlWs2nUMPajtPisXj5ZBkVVqrFf7ZioLahH4U/i/gcH8N8ow+N7QY3NqUdOFwj7nDp7uUmrOT8bf/sUlQpZNkmIjTrOnOnRnOTveVSdt23zbPT/hfhlhuw+FmlGLrznUlJ8W9Vv4JGuluUzLs8jDGGkV/Z9vYezHZWt1Ivdc526cCHuto6vF8CHNW9aXhpRtcKz2v62nnZbjxSST4OTKptLlBLrxIunfSnUa332Au5KVrtzv04EbxV/VhbbdblHN2tKSjflAiL5xg99m5AS3GV0tVRr6DU4q11Ti99tyrbl7VVNdIoabLaC23TkwIdSLa9qbe2/AXklxhC3Td2IlNX9abbfJGlj86y/LFfFYqhQfSc1q8gNxwTvaMpc1djVpvqko35RR4vM/xLynDxnDCOrjq8eFOktvq+CPP4v8RM8xcJwweBoYRSj6s6ktco9XZcRuGdcd7/WH1GVanBatn1cjn4/tDluX0XUxePoUYpXtrV38lfc+R4rH51mOp43N8TKM46ZQpy7uLXRpGnTwGHpPUqScur3f3JydVPCyT76fQcb+J+VU5OGX4bEY522nGFo+crHnMw7ddocwbjRlSwNN7Wi9UvNWOPpVtt2HCyd7W8GTbqp4VI+3bBiHisY3PF4qvXb46p2XkikMLTpx9WNt+SsXr4rD0NpySb4R4vyRvZbkWf5608DgJUqT/r8R6q+i/wDJlC2nBiaTjGEHwsuPJW+ZTD95jq/c4DC1sXVfu0Y/xZ77KfwuwkZRq5xiamPn+XF6acT2uCyvB5fRjQw2HhQpr3KUbL+bK5cnl2n6xp8zyz8OM7x8lPMsRDA0nxp0nqn9We3yTsTkmRuMqGCjVqrd1q3rSPQxpxSXq6VyTMndr/wHHa9re5aVbDzqYql60nRnGUZQu1p22e3Hmt7l6GBSnCtiJU61alFwhNRcXpa3vu734m57KvuuhDnukkpeJGKKeHpUYqNOmopJeyS5K1k73KXvdydi/CWz4dUBDjJ3bVl0QVFJrw43Ra60223ZOrd/zAx93G19uPiHTW9vsy7b24lG1aW/2ArKNr2vwMctr7cuZeb3fDgYpvj8gL0KihiYSvb1jtnnZPiz0K4ICQAAAAAAAAAAAAAArOWmEpPkmwOfjsU3WVGL2jvLxMUan0sjiZfnNDNNVejNPVJ3XNM69NWV5f8AgLMTHtsp3Tf3Ze6s7swa9r8L8+bJ1Wvbb+IRn1W8PsL8TDdq79nx4ss5cW/OQF5aW03ZuPDe5EYRgmoQUE3fZJK4ve9r/TYi6v7q263AvqvfdfxF348PkVTvbeT+SsPnHzkBN1+r9XcKa2s/KJTWl70FZ8kNXFapv6AW1S+CT+bDkovjFb9LlbN39R/WQu170Y36bsCzu77Sf2IbtteMb8luyE9VnaUvFuwu0vdj92Bze0Od0Oz+S4jM68dXdxtTjJ71JvaMV9T5zltCqlWzDM8Q6uOx0teI0buN+EfBLbhwN3tJmH+kXa/0aEr4HJn73s1cQ/5FnJuMpNRpwe0mryav0fJnLmv3xh7Xx/j6r/JP/GLHYepXy/FYd01TdSlJXl7Utrc+J1vwqzGGK7JQwi/32DqyhJN8E3dP+PkctKDiu6U5y4qU1snzuv8ANzj4XMKvYvtHLNIpVcvxb04qlTf+7fW338yYbRE6Z/IYZtSLx+PsV09m9b6IXlDkoRfO5rYLH4bMcLDEYKvTq0Jq6nAzJq/qR1PqzreERabvCLnybfASlZLXUVk+C6ETlFv15Nt8kVUucYxiurAtqa9imo802yrepu8pSbXBEXV97yfgc3Mu0eV5TFvGY6jQtvpcvW8uIHTTmuDjBdOZWTivabmzwWP/ABRwivHK8vxGOlynL+jh99zh4rtZ2tzS8IV6OXU3yoQvL95kmYhtphyX+sbfU8RjaGEpOpWrU6FNK7lUkkvueKz3tZ2FxknTxVCGZ1Xtqo0HJr9rY8TPK6eJq99j8XWxtXnKrNyNqnhIUY/0dKMIr4VZGE5I/HbT47JP2nTg1sJWrZlVrZbhp5fhpv1KVSpqaXidTDxxMaVsRUhOS4OMbG33aV+V9nsUdOS4Jt8bGPLb0cXj1wx1MsLlG/B3tbhwD9VN32XJ9C86VRxdrRdtm1ff5HHxOExUa8K9eSxeHjNOdKMtF1zsZQxzZZxxuI23FjPSK3o+CoVMVVk7aaMb7/M7+W9gc8zPTPMsRDLaMt9EHeo0el7H572cxKhgsvws8urtWdKVHeX7avf6s9lCMVfu4tu/GRsiNPHyeTkv/h53JOw2SZPadDCRrVedbELU7+Fz0apxVl7VuCjwRZp765X/AFUWSuto6V15lc2y1lutK6RLRVlt6q8eZCsuD36hu27AunFePix3l/ZVyid36qv8yW5JrV9iC1pPdu9iLrdtWuRd247C/OXACdttxqe+/wAyvO1t2Q9KSXQC93t0Icnvtv8AIrs3dvYr8nv9wLar22IbSTTElZ+1/wBiHezd7sCsmnz5FGr7r7Mvqk3sk9iNT5009gKuLtZ8zvx9lfI49DROoopNHY4ICQAAAAAAAAAAAAApUhrpzh8SaLkAfDsRhcw7M5vWWErtOnOz28rrmehyzt/T2hmlGVNrbvKe8fqj2efdnaeYqVejCCrtesmvb/7nz7M+zSpylGUVTmuMd015mPG2+noUvjyxq/t7fBZphcfTVTCYiFZPjKLvb6cjbjVVtm0up8jjlmMwM+9wlacXf2oSs/NHYwHa7NMHanioxxMI/F6k/PgxuY+0ML+J+0nb6PGfNequvMup815s87l/anLsc4xlWeHqvhCt6u/g+DO1GpdKT36dDKJifTktS1Z1aG1GerrLxfAspLqk/BGsqluLb8EXVT9ZRXggxZ+PxP6hq1/Vh9WY1JPgm/qSpeEV8wLauWuP7o1X5zd+hGv9dL5Iar85P5ALf/W3/wAzG8VxhBINJ8YyfzYStwjFX4gQ2pX3lU52Wxze0uavIuzuOzJRUJUaTcG/je0fuzpt9an0SPEfipJ/6N4TCpNLE46nBpvit3/gSeoZVjlMQ8z2fpRw+VU+87ypiK96tWTdrTe+/X+J0m5reUoakrWu29L/AIlJVZwgo1KijD2dFNritvoY1O6tBaV8UpW1HnzO52+upTjWKx+LzalG1TVpfrRtG+/8vmYaiVSm4RipRa0y1pSTXK1/4Cc9KvKetvio3VnzVilRp7SWhrgmrO3K5GzTnYehj8ixEsRkGYTwuveVH2qUvod3D/iJn+Hhox2TYfEW9/D1dLf0Zz5Tfuq8Xu21u+u5ikk3u25c7m6uW0OLJ8fhvO9a/wBO3/rNxCuo9m6urxxMf5GviO3vaHEr/ZcsweFT96tUdRr6Kxy9PSC8GO7g95ydnxXAy/ms1R8Xhie5lTGZr2gzK8MZnlZxfGjhI92vNGpSyXDwaqTjF396o9UvudKKqcIwUbcGwqVLknN35v8AzYxnJaW+niYaeqsNOnCLXd0G31tZeRd0+CnVfhFbGfRU5tJdIriTGnbaMEvFox26OoYFCXKml4t72Doxum5NvirMzyUYrVOd0uN2kjDSxFXGVXRyzCVcZUXHuo7L5vgjOImfTTkyUpG7TpXuW+SS4GtiK2Fw206kdS5R3Z6TBdhc5zB68zxkcFSf9VR9ab+b4L7nqMq7G5LlGmVDCRqVl/XVvXl/JfQ3Rjn9eZl+Qj+iHznA5NnmdyXoGXyp0W/99XWmP34/c9Plv4ZYeE1WzjGSxU1/V07qK/z9D3elcG2xa3CKXibYiIebkz5Mn2loZflOAyum6eAwcKKlu2lx+bNxqT2lNJW4Iv8AOTYUekF9StKiik1ppv8A5mTbq7+Ba3WT+SLJPkgMSc3xio+I9RWteTMrin7TuSotbKKXiQY/6SXH1EQ1GLvJ6n4GTR8Ur+AUVf1Y/VgU47yW3JCz9pxV+hk025tv+BOlp3963EDFpd7Xbk+a5C3JK1uPiZdPJfUjT9IrzAxWur2bhyQ3tdt3fC3IyOK1KT+hOmzv7zAxaXw4P3n1Itz3aXDwMui3qrnxIa3uuXADG48ntzlYizfK1zJp5cCVEqL4Wn/SR+dzpGrhYWd+htEUAAAAAAAAAAAAACCQBFjDicJh8XDRXpRmuV+K+T5GcAeWzXsw40p1cJWnJRTbpzbb+jPB46EINuTbXhb+R9kaurdT45j6E6MXWp4mnWpSnJPTJPS78GZcutS6MWSatB1MKoX0SsuPBpm5l+f1MEk8LialOPwVI3iaLwEsXUhDCRk69RpRjDm/ke9yz8OVhsOvSMyk6kl/SU4UouF/2v4mE7dk+Rj46t218B2toVY/7XQafOdJ6l5cTr4fNctxDvDG0k3wjJ6X9zWxX4b5fVpp4fE1KFZe9Feq/pyPP5h2K7QYBN0JU8ZSXOLV180ybmGnh4+T1OntVeavCWpdUyfZ4q/zZ8upZjUw0tMXOE4uzdOTjv5nZwHarF0mozxHfR6Vlf7rcsTst4do7rO3ulUfJJFlN85eRxcD2lwWKahVSoz6p6o/z+x2IKFaKnTnGUXwad0ZaclqWp7hbvI/FJkqS5Q8yO6XUOm1wDBbU/iSPEfilG+R5fX3lGjmFNy8E00e07p8WcjtXk7zrs1jcBGN5zhqp/8APHdEmNxplSeNol4VTtd0YX+JzV7EVJq+mtUcnyS3SXzNbLIY/G4OnOWGrKolacXBq0ls7nUo5FmNWPqYOp85Rsefxnen18ZacYttp6521UoqnF8r3v1McnFWTlra5o6s+zWZJOpWVOlHnKpNI13gKNPaePw/D3W5fdIcZ/skZ8U+pc93bvsvBciNO9pbW/zwOj6HhL/+/p79Iz//AJCwuCW7x0G10pz/AJDjK/zUaEacn7PB8OdjLGmuOnfnzub0aOCXHG+VORaNPA88ZL+6ZeMsZzVaapu1tVy2l9LfIzYhUKNNzpVXV8NDT+5s5T2ezHO6UcTOvTwOFlw0tVKsv8I/cyrS0zpqy+Tjx15S5datQwqUqk1Hpd7v5dTawWUZ3m7XouBeHoP+vxS0r6R4s9plnZrKMpl3tDDd5X51671zf1fD6WOs6iOiuGI9vHy/IZLdU6h5jAdgsvpTjVzKtUzGot9M/Vpr5RX+Nz0tDD0MLTVOhRp0oLhGEUkO8RDqo2608+1rWncyy3FzD3qDrJcysWZ782NjB366jv10A2L+I2MHfePkSqi2uQZ7rkTYwqpw3LKotgM3ysTb5mHvVbiS60Ur3Ay2XQGu8Sr7W+pHpP63kEbNkuX1DcUuKSNTv11Y71MDYdSP/gh1eiZgdRIjvblNs3eyveyKudTlZGLvPEd6DbJrqdUSpz5pMx67k60Bk739V/RllUV+DMSkjNQpurNJcObA6FGOmkvHcyEJWViSKAAAAAAAAAAAAAAAAAACGfC+1vYTPshxeIx2FlPFYWcnPvaOzjd8JRPupD3VgsTp8i/CahisVnlfE4qMtFChqg5R4yk7XX0v5n10hRUVaKSS5JFhPaBBJAHyLtXleFw2e4mnCDhFy1WT4X3OHToQU7d5K3Rnru3FB1O0/dRdnVhG1+p5utga2DxGitGz69STWJdmPPMR3LBUjUp+x6y8DLgM6zPD1bYGvW1rfRFOXmikYudTTDeTdkvE+s9lez67P5V3E3TniJyc6lSMbXvwX0RJq2W8nUdxt4nB/iHWoVO6zXB7rjKmnGS+cWeoy7tLlWZpei4yEpv3JPTLyZ185yDLs9wkqGOoRnt6tRbTg+qZ8R7U9nMf2XzT0epLvKU/Wo1kra1/NCNw0TbFf81L7Uq0XzJU0z4XhO1Od4Kyo4+rpXuzepfc9HkXbHtRmmMWDwmDpYys1e1tNl1bvZF21TSPyX1K0bnBzXtLRwynRwWipWjs5e7F/wCLORic07Xzw9XD1Oy+Jg5xce8pVL2uuKsjxuNwOcZXh41MdgMTh6cnbVOFkyTbX46MGKkzu8u9iMRUxbdbE4p1pPxvY1NSXyOLg8y0zUZO8XxR03USV+Qtx4RNfb0ufGGdSRDmlwRr99EsqsdtjVwtKWyzELzqyts0voaksTUk7RfkdXLMpxGe5jTwOH9WL9arUttCPU+h4TsTkWEhFLCOo0uNSbdyxSf1qnza0j0+WYfD4vFzUKUZzb2sj3eQYWWUZasPOd6kpOUrPZN8j1VPJ8vpK0MNCK6K5mjgMJHhh6f7psisQ4s/lWyxr8cB4lvmR3zZ6NYehHhRgv2UXVOC4RivoZ7cjzalOXCEn8kZFQxMuFCo/wBk9DYkDgLAY2X9U19UXWVYprfSvmzuAg46yivbepBeZb9Dz511+6dYActZP1rv6RLfoiO39PLyOkAOc8pjp9WtLVyutjUq5fjYStCOtLnqSO4APNVMPjoRk5UWrK/zNFYibbUm7o9kzxuarucdK3vX4dUywxldVnzZeNbxOUq829jNTqTb3KjoOu0upn9DzGyaw0t/FFsjwixNd4iavCk/V8ZHoibWIeSr1MTh5aa1OULcbmejVUom5nNLvMTCH5sGvqjh0qsqacWnsDToKpeo0X1bnM7+UZatLMkcVJtbFG86lmkZKUZ1pqEFds0U5Sd27HoMrwvcUFUl7c/siCtDLpLepK3gjep04042irFwRkAAAAAAAAAAAAAAAAAAACCHq5AWIuYZ97yia1V4n3YSA3tcVxaIdWmuM4+ZwcTPHJPTTqfRHKxFXMl7tVfssD2LxNFcasfMj0vDr+uj5nz6tjMxjdPvl+yzVlmOMTd51VbwYHY7X9kV2hx/6Qwmbww9ZUe70Ti3H53XDifLsfhO0vZ3EOOLVaVOm7RqO9SnJeDPayzbFJb1ahrVM5xFrOc2ud2WJmF24vYuviMf2mwEK9JOhKtrlU0u1o3fH6H3D07DfmxPkkM4rQSjC8YrglsjPDOq1uMvMkkzt9U9Nwz/AK6PmcHtdkeE7T5fToxxyw9ehJzpVLKSvbg0+T2PHxzqvyi39SzzjFJXVP8A/II85W7B9plmPcywmEqQldqtRrJQXnuj6V2DySl2cyPu8U6UcbXm51mpJ25JX6W/ieVl2hxUXbuXf5hdoMbLhSsyaH1H0mh+bDzOB25r0V2TxlZONR0Up6eN1ff7M8c+0GPXGnY08b2lzGNF2jpvzKPM4ihhKmNnHLnNxhTpymm16spRTaXhc34KUcMlPZ25nP72lRw+Y1oQ7vE1qL0Sit3PUn/M4kc6xUoWrYpuXAkV7boy21p6ulBTV21Y6by+eGwixFWDjB8G+DPnqzjGQt3eLkknc9flOe5lnuR1sJjm8Q6TUaNXTaW7V7vg7K4ZWyS+qdi8BSy/JYV6jiq+LtUk+kfdXl/E9D31L44+Z4alm2mEYRbSikkkZ45q3u2180VomdvZ97T+OPmO9p/HHzPILM/H7F1mL6ryCPWd7T+OPmO8h8cfM8r6e+kWSsdJ+6gPVd5D44+Y7yHxx8zy/pr5xQ9N/VA9P3kPjj5jvafxx8zzPpn6g9M/U+4Hpu+p/mR8x3tP44+Z5n0z9UPFv4H5gem72n8cfMd7T+OPmeZ9Ll+Wyvpkvg+4HqO9p/mR8x3tP44+Z5X0x/D9yrxsvhXmB6zvafxx8z572hz2jgMdWjiKc6l69WNPRbayg/8AFnSlmMo8kzy/aiFPN4w11pUZ0k+7cVtd2vfyAiXbTLKT/wDa4hqyvwv48zu4bG4PMctp4rB1LxrT0R1KzT4tfQ+aSyLHt2jmFB/PUv8AA9L2foYnCZbHC18VTTjVlNaFe11biB9XymjDDZbQp6k246m78W9zd1R6rzPDU8zelRjNWircSzzSceNT7sDtdoMT6NmOVSX9ZXcHv1scrD6MXicYqLuqVVq5y8xzRVe6bcZSpT1QcrvS+qOBmeZvLuzeLjQrNVZuCbvu1d3f3CPV4nM8pwkZxrZjh+8in6qnqd7eBzKParLFqcpzbt7sD5jDG4io7QoTl8os3KVHMMStMMLUi38TUUvMRCvsmSV8NnCp1MPNyg5esmrONuTPVqyVj5X2NWLyLCVVVrRdStJPTF30/U9dRzzESt61wPTg5NDMq0+K+xvU68p8YgbAKp35FgAAAAAAAAAAAAAAAAAAAAAAAAIsuiIcIPjCPkWAGN0aT40oP9lEPC4d8aFJ/sIygDA8FhXxw1H+7RHoOD/stH+7RsADWeX4J8cJQ/u0Q8swD/4Oh/do2gBqforL3/wVD+7RH6Ky/wDsVD9xG4ANP9EZc+OCofuIpLJMrn7WX4d/OmjfAHMfZzJZccrwr/6SK/6L5D/8Pg/7mP8AI6oA5a7NZHHhlGDX/Qj/ACM8MmyykrU8Bh4LpGmkboA1ll2CXDC0v3ET6BhP7NS/dRsADB6Fhf7PT/dRPomH/Ip/uozADF6LQ/Jh+6h6NQ/Kh+6ZQBi9Fofkw/dI9Fofkw/dMwAw+i0PyYeQ9FoflQ8jMAMPotD8qPkPRaH5UfIzADD6Jh/yY+Q9Ew/5MPIzADD6Jh/yYeQ9Ew/5MPIzADB6Hh/yYeRV4DCPjhqb/ZRsgDV/RmB/slL9xD9G4Jf8LS/cRtADW/R2D/stL91Efo3BP/haX7qNoAabynL5e1g6L+cEY5ZFlM/ay7Dv500dAAc7/R7Jv/jML/dIlZFlMd1l2GX/AE0dAAasMswMPZwdGPygjLHC4ePs0aa+UUZQBVQguEUvoTZdCQAAAAAAAAAAAAAAAAAAAAAAAAAAAAAAAAAAAAAAAAAAAAAAAAAAAAAAAAAAAAAAAAAAAAAAAAAAAAAAAAAAAAAAAAAAAAAAAAAAAAAAAAAAAAAAAAAAAAAAAAAAAAAAAAAAAAAAAAAAAAAAAAAAAAAAAAAAAAAAAAAAAAAAAAAAAAAAAAAAAAAAAAAAAAAAAAAAAAAAAAAAAAAAAAAAAAAAAAAAAAAAAAAAAAAAAAAAAAAAAAAAAAAAAAAAAAAAAAAAAAAAAAAAAAAAAAAAAAAAAAAAAAAAAAAAAAAAAAAAAAAAAAAAAAAAAAAAAAAAAAAAAAAAAAAAAAAAAAAAAAAAAAAAAAAAAAAAAAAAAAAAAAAAAAAAAAAAAAAAAAAAAAAAAAAAAAAAAAAAAAAAAAAAAAAAAAAAAAAAAAAAAAAAAAAAAAAAAAAAAAAAAAAAAAAAAAAAAAAAAAAAAAAAAAAAAAAAAAAAAAAAAAAAAAAAAAAAAAAAAAAAAAAAAAAAAAAAAAAAAAAAAAAAAAAAAAAAAAAAAAAAAAAAAAAAAAAAAAAAAAAAAAAAAAAAAAAAAAAAAAAAAAAAAAAAAAAAAAAAAAAAAAAAAAAAAAAAAAAAAAAAAAAAAAAAAAAAAAAAAAAAAAAAAAAAAAAAAAAAAAAAAAAAAAAAAAAAAAAAAAAAAAAAAAAAAAAAAAAAAAAAAAAAAAAAAAAAAAAAAAAAAAAAAAAAAAAAAAAAAAAAAAAAAAAAAAAAAAAAAAAAAAAAAAAAAAAAAAAAAAAAAAAAAAAAAAAAAAAAAAAAAAAAAAAAAAAAAAAAAAAAAAAAAAAAAAAAAAAAAAAAAAAAAAAAAAAAAAAAAAAAAAAAAAAAAAAAAAAAAAAAAAAAAAAAAAAAAAAAAAAAAAAAAAAAAAAAAAAAAAAAAAAAAAAAAAAAAAAAAAAAAAAAAAAAAAAAAAAAAAAAAAAAAAAAAAAAAAAAAH//2Q==;" vertex="1" parent="1">
          <mxGeometry x="229.88" y="107.39999999999999" width="29.25" height="36.57" as="geometry" />
        </mxCell>
        <mxCell id="a0m1b-ZxAtpMWGiJwPaL-2" value="" style="shape=image;imageAspect=0;aspect=fixed;verticalLabelPosition=bottom;verticalAlign=top;image=data:image/jpeg,/9j/4AAQSkZJRgABAQAAAQABAAD/2wCEAAkGBxMTEhUSEBMWFRUXFxUVGRcVFxUVFxUYFRUWGBgXGBcYHSggGB0lGxYVITEhJSkrLi4uFx8zODMtNygtLisBCgoKDg0OGxAQGy0lHSUuLS0tNS0tLS01LTUtLTUtLy0tLS0tLS0tLy0tLSs1LS0tLS0tLS0tLS0tLS0tLS0tLf/AABEIAQUAwQMBIgACEQEDEQH/xAAcAAEAAQUBAQAAAAAAAAAAAAAABwMEBQYIAgH/xABNEAABAwICBQcFDAYJBQEAAAABAAIDBBESIQUGBzFREyJBYXGBkTKhscHwFCMkQlJyc4KSorLRM2JkdLPhNDVDU2OjpMLxFiVUk9II/8QAGQEBAQADAQAAAAAAAAAAAAAAAAMBAgUE/8QANhEAAgEDAQQFCwMFAAAAAAAAAAECAxExIQQSQVEFEzNhsSIycXKBgqHB0fDxNDViFEJDRVL/2gAMAwEAAhEDEQA/AJxREQBERAEREAREQBERAEREAREQBERAEREAREQBERAEREAREQBERAEREARF5keGgucQAMySbADiSdyA9Io/1k2tUNPdtOTVSf4RAiB65TkR80OUWaw7SNIVd28ryEZy5OC7Mv1pPLPiB1KkaUmauaRKW0jaXFQMdHT4Zanda92RE/3ljv6cAzyztleBq3W7SNU68tXO8n4rHuY3ujis0eCrUFMx9g9oIHOt0X7Onetr0e5rfJAHYAO7L1qypJMk6ppIbVHM+6D1nlvSqzdI1bN01Szskmb61I+Mkc1xB4i1xbty8dytnTzj4xPcy2/pN7+sreyNN9keP1hqv/LqP/fL/wDSzmq20jSFNMy9RJPHfnRTPMgc3pAe67mHgQcuBGS2WaS7QH2JtnYC1+r8uhavp6oYTha1txmSAMuoFYcEzZVGdB6r660dcAIJQJbXML7NlFt/N+MBxbcLYlyHDI5rg9ji1zTdrmktc0jcQRmCpG1Z2vVUNmVjBUs+WLMmA/C/7p61KVHkUVTmTsi1nQGv2j6uwiqGtecuTl96ffgA7J/1SVsyi01kpcIiLACIiAIiIAiIgCIiAIix+n9Lx0lPJUTeTG29hvcTk1o6y4gDtRagw2vWu0OjoxiHKTvBMcQNr9GJ5+Ky/T09HTaA9Zda6uudeplJZe4ibdsTeFmfGPW6561bad0rLVTyVE5u95v1NHxWN/VAyH5rHr2wpqPpISlc84V9DV6srqhopJXBkTHPcehjS4+ZbmtrlKmkwm6z1HVXzB9vUvbdRtIHMUzu98Q8xfdP+jNItz9zP+q6M+hyw2uZixfGqJAAc5ud7tbe4zyNwR3b8l9fpJgGb/E5/wDPoWKm0PXMydT1A7I3keLQsXUse02ka5p4PBB8CsWMWMlXaXvkzx/LgFhXC5XsNXpbWMlIheC1VSvJQyUzGDkVsOgNcq2jsIKh2Af2cnvkduAa7No+aWrBI0XWGkxgnLVDavDUvZBVRmGV5wh4IMLndAuTiYScgCCL2zUjrkos6FPOyfWw1cBgmdeeEAEnfJHua/rI8k9x+MoVaVldFITvozfERF5yoREQBERAEREAURbdtL5wUbTxnePFkY7P0h7gpdXN20rSHL6TqXXu1jhC3qETQ1w+2HnvVqCvI0m9DV3BeLKoV8AXrInxrFJ+yuiBqHPtlHH53kAeYOUb07LuA6/Rmpm2W0mGCSUjN78I+bGPzc5eLaXecY+06+xLc2OtU52ivn8DdkWk62618lMKZhI5rnPc02LbNJBv0C/DPI5HIHFw6bcMDhNIzHeQY3E81rQTluORx58eF7Z3Gc6+e4kmytNKiIRPdM1rmNa5xDgCCAL7jkrbVzS4qYRIN97G2QO43t0b/G6w20qvwUojBzleG/VbznecNHepze6mz0bLR66rGHN/kiHSMbec8ANuSbNyAudwAyssZdXukZMw3hn4qxcFfZt7q7yZXpd0/wCpcaaSS0058foCvBKYl4JVzmH0uVeIK0DldRlZQZVssxqfpk0dZDPezQ7DJ9G/J9+wEO7WhYoLy5q2tdWNcHWAKLXNnuk/dGj6eQm7gzk3ccURLLntwg962Nc5qzsepO6CIiwZCIiAIiIC30hVthiklf5MbHvPYxpcfMFydUVDnuc9/lPLnuP6ziSfOV0TtZr+S0ZPbfJhhHXyjgHfcxrm6b/nsXpoLRslUyVWSXt7e25VVZUJ5xB6Pb27VfWV09DRlzo5vOJ4BTxqTDgoYBxbj+24u9agugFg493gP5roXR8WCKNnyWMb9loC8E3etLuOzVXV9H0o/wDTcvl4WI21uoOSrnSzNxQvbncbxjx3uSBk62RyOGxtiF7Kap5WK7gHSHGWYQ4Cz2YTcvF3ZE5C/kt3AFSvUwMkGF7Q4b8xex4jgetWlLoaBhuyIA788Tu/nEq28tG8o5alJJxWH9/gs9R9GugpWtfkScVuF/53PYQtL2nV2KqEYOUTAOxz+cfu4FKN1AutNdylRUSfKkfbsDsLfMAvNW8qy5s7HQyUZzqvEIt/fsuYOSS5J4qmV5BVRoXRSsrI4c5OUnJ5ZTc1Un7irvCradtgUNUW0ZvbrKvGvzWOY7d3+3nVzG9YTMtGSjK9kK3gcrpbo0ZKmw3SeVRSuO4tnaOpwDH9wtH9pSsubdSNN+466GZxsy/JyHo5OTIk9QOF/wBVdJLyV42lcvTd0ERFEoEREAREQESbfNIc2lpwd5kmI+aAxv43+ChqX0iy3ba7pPltJyi/NhayEfVGJ333uHctFmcvbBWiiEndjRx5zgd4AF+Izsr+6xlC7nHs9f8ANZEraODDyZjQjA58TT8aRjfF4CmTXSvkhop5IL8oG2BGZbicGl/1QS7uULaEq2MlhL3WDZI3EkHICQE7upTPDrVRP3VUPe9rT4OsvFCLU5Nridfb6sJUaMYtO0dbPD0Ne0XrrPUMZHQURc4Na1z5HWiYQAN43jquD1LZNH6MmPOrJzI75Ed4om9Vm2c/6x7le09bE4e9yRkfquafQVcXVG+Ry0W+kqgQwSPAADI3uAH6rSQue6t/NA61Nevk+Ghn6w1v2ntB8xKg2sdmO9SSvVSOzs76vo+rPm0vD6s8NKuGBWrCrhrl7kcIquNlazOuqjrqlKOpZZgxr8nd3osfUqkLvP6OKtKh3OsVcwm/t5lJPUo1oX8DlfMerGFXkaqibPkguuhtmWmvdWj4nON5I/eX9JvHbCT1lhYe0lQFBSPkJEbHvIBcQxrnEAbyQ0Gw61KexZhjB592TsL8JFrPikezmH492jnWzbZt/KCnXScTam9SVURF4z0BERAEREByhp+px1NQ+5500zs7k2dI4jf2+ZYiZTrtL2Ze6S6qoABOc5IrhrZj8ppOTX9uTuo3Jg3SFLJE8xTMdG9u9jwWuHcejrXsU1JaEHFotYjzvH28y2PReiKioxCnhfJhtiLRzW3+U481uXErWWGzm9oUma4u5PRujKePKOWE1MgH9pI/Abu42xOtfq4BIvgZaNR0jo+WB+CeJ8TrXwvaW3HQRfeOsZK1aCdwJyvlnYDeexbzoZvunQtZHLn7kfHLC45lgfk9jeDSGuy4u6gq+y2GGN7XVIua0y0cQPRG2Mumf1gv5KMdd1lysmYsR7iHTZVo6p7fIe5vzXEehZfRlXUUdQ+kaWfpmwyB8MUgcWPLL++NdYG53cVmNpVTFDVz0sNLSsYAwYmwtbI0uY1xLXNIsc+kFHLWxi2hqculp3NLHTSuYbXa6R7m5HLImytHPJ3ra6fVph0ZLOc6hojnAubsgc4tBIvY4g2R/YArHUbQLK2pMEr3MaInyYmYbjCWgeUCLc5a3jk33p7u5fR8OBhowriPcs/Qauw1NLUVNDNITTNEkkU8bGuLCHHG17HkHJj8iL83oyvrpNj1FUTJtFUFUpyqoVGfctjBg9I+V1b1UpXr7VtuCralf0LzYkWzEztOVn9D0UZjkmmxFjHxRhrXNjxPmx4S6VwIjYBG67iDmQMlrNO9ZfRulpYCTBI5hcLOtYhw3gOabg2O6+5W4EjaGtZTh0Dqj3O4Sw1Ikj5SXlIjFija1zGjE9mIEYg1pLiclb6D0pJJpGCSHCzk5ZpGtOVonySzSs6zge9otwC1iprHSOL3uL3ONy5xJLjxJO9Z7Z9oapqKyN1O3KJ7XyPdkxrb5gni4XAaMzfhchZW1MrJ0oi8Qx4WtaLmwAud5sLZr2vCegIiIAiIgCx+l9CU1U3BVQRygbsbQ4j5pObe5ZBEBHOkdi+jZDePl4em0cmIeEocouNdFJTto6t7o30z5GxTBhe3CXWdHI0HEBcCxF7WA7el1yjrALVVS3hUTjwmeF6KOuSczb9Os9xaMZTQEysrXNmfVAYYnBtsMDLEuBBZd2Kx8rLMhthpbW59PJHDQPjfBTMjbGXwxP5R7QHvlu9mNpdIXbiN11r40vM2B1MJXCBzg90dxhLhuPEbhu32F9wWx1+rzG01KQxvKRVEUVRZzHF4qsDxjDTduBwfDZ1j4qjSWTTOC61yjil0rSVNO9jmVT6V5wuDsLw+Nrg4DyTh5M2PSSqGtej/AHTpuojcbRhzXyO+RDHBG57r9GWQPFwVel1XpnOnc+ECFlfXQyScq9hp6WENwuaMdnFrnDe117gHeCsVQauMkkpBFM+OGopyXvJt742QwPjAA8l0xhGE38tapoy0zPao6apamtlZyczPdcZhLXvjdFhZGcLQA0FtmAgC5Gasdm9KaeprjILup6eZjt4uWvz7L8mfFYLVrQ8zp6bkpeRmfJJYkA8i2IhvKOJOd5MbA22Zbvzsr1tTXtjlnD2PfWSuoZ24Rygla0tDCAA1pLTcFu+2aOOUhfmZvTT20ujozoxgbTVzcM0ji58oc0H3guJs0W5Qbuh/G60Qi+S2OgraiCino3xwywSGSRt5Wh7eTOF0sAxXc0PZfySDhda4JWuMW8DWQa7j7EL47Nfbb14JW5qYuqC3fU3U412h6p8Tb1ENRjjAGbwImY4918wbgfKa1ajVx+dTt/8AnymLdGyOPx6mRw7GsiZ6WuXmq6aloEHM0dODYwSg8DFID4ELN6M1Pr5/0VJMet7DE37UmEHuXUiLHXMzuIhrVzY08kPr5g0f3UObj1OkIsOwA9RUs6J0XDTRiGnjbHGNzW8ekk73E8TmVeIpym5ZNlFIIiLUyEREAREQBERAFyvri22kKv8Aeqg+MzyuqFyzrt/WNZ+8T/xHK9DLJ1DFF1iD0jPiryk01NG6V7XAmYtdJjaHY3NlEocesPF7jiVRpWg4ri+Q9amSfZ7QPF+SLTYeRI8dHAkgeC3dRbzi+BSezyhShVvpK/wdiMKTW6dj8RbG4Geone0hwEpqm4Zo3Z+QQMhbK3SrYawPbTMp424RHUGoY69y0c0iLdm0PaH36SBlkpFn2W0x8iWZvaWOH4QfOsXU7KHf2dU3sfGR5w4+hZ3okNTXNI61tdLNNBCGvkezC2RocyOKM8phFiDidOeUJ6MIsr6r1jgvpF8Dy01LIJGMLHDBOTafCbWa4B0pD8r48swqOldnVVDG+UvhcxjS42c4GwzORb61qT4yN6x5N7XKKFRxc0nZceRsFPUsdSmKp5JzWQ3p3tcOWjkc4EQloOItu5xNxYWuDuWHiOatVcjcCqRViLZ7cbZ+wXlw/NejmF4bu7FsYKLx0LorY5TYNE0997jM/udM+33bLniQLpzZ9Fh0ZRD9nhd9pgd61CtgrTNgREXmKhERAEREAREQBERAEREAXLGuZ/7hWH9pn80rgup1ytrY69bVn9qqf471ehlk6ha0O53txXRcR5o7B6FzlQbne3FdGxbh2D0KT7SXsOltH6Kh7/iel8K+r4Vuc0wmuT7UVQf8Mj7RA9agit6FOevR+Az/ADW/jaoLrd47/Uprtkdijp0ZV9K8UUAq8B6FQCqRusV7UcJlZvBfCbHt9rL653SvjwtjB5cMl1NqszDRUo4U8A8I2rli+S6q1bPwSm+gh/htUK+EVpmRREXmKhERAEREAREQBERAEREAXKOsDr1VSeNROfGV66uXJelnXnmPGWU+Mjir0OJOoNHDeOOS6OaMguddDNu9o4vaPEhdFkqX+SXsOltX6SgvW8T4V8QlebrY5pr+0B1qCbsYPGRig2sOYU27R3fAJOt0Y++0+pQjV7+5aR7Zeg68NOjJ98voUQqoCpBVY17UcMuA24XwBGlfCtjBS6SO9dTaouvQ0h408B/ymrliQLqHUU30bRH9lp/4TFCvgrTM4iIvMVCIiAIiIAiIgCIiAIiIAuQ5JMRLvlEu8Tddb1T7MceDXHwC5Dh8kdg9C9FDiTqGY1dbeeIcZYx99q6CJUB6ptvUwD/Hj/G1T1dS/vkdDatNnorufiCV8Qr4snPNV2lu+BEcZIx5yfUoYq9/cpj2mn4GPpWehyhyr3935rSHbHYx0Y/WKAVWNUlVjK9qOGyu1ffb+S+N9vyRbGp4dwXT2ov9W0X7rT/wmLmF66d1EP8A22i/dqf+E1Qr4KUzOoiLzFgiIgCIiAIiIAiIgCIiAx+sEuClqH/Jhld4RuK5OjFsl1Hr6+2ja0/s04+1G4etcvSBemhhkqmTYdTW3q6f6Vnmdf1KdAoP1EF6un+k9AcpvUI+dL0nT27SnRX8EfV8K+r4Vsc00/aefgjfpW/heofqt/d+al7agfgrPpW/geohqfK7vzWkO1Oy/wBt94tyvUZXxy+NK9pwmXbV9XxhQrYweHrprZ66+jKP93iHg0D1LmRy6X2bG+i6P6Fo8LhQr4N6eTZURF5iwREQBERAEREAREQBERAattQlw6LqjxY1v25GN/3Lmt66I2xvtomccXQD/URn1LnUleqj5pKeTadQG/DKf5zj9x5U1qG9ncd62DqDz/lPUyLzU9W33nV6SVnSjyhE9BeXL2F4cqHM4mmbUG/BWnhK38D1ENV5Xd+amHab/RB9Kz8L1D9WM+5Th2p2H+2+8W6+gL4VUjC9qOEypEV6cV5ajlkweCV0nsrkxaKpT+o4fZke31LmpxXRWxl99EU/zqgf6iVSr+ab08m7IiLylgiIgCIiAIiIAiIgCIiA0va7QSzaNeyCN0jg+NxawYnYWuuSGjM24DNc4uyJByIJBHSCN4I6CuwlhNPapUVZ/Sqdj3WtjALJB2SNs7uuqwqbqszSUbkJbNBesZ1MkP3betS4rHQ+zeKlqOWp5XFuBzcEgDrYiMw8W3WtmDv3rOS6OePi/ZN/MpU9FqdDpCvCtUUoYskWgK8uK9vhI35doIXgsPBVOeaftN/ojfpW/heohrN6l7acz4IDwlZ0fqvCh+sOanDtjsf6x+t8y2cvbCvBXpq9pwis1y+O9vbegXkuWs02rJmYtJ6nx4XQmxJ99FRj5Mk48ZXO/wByhHVnVipr5BHTRki9nSEERx8S53G3xRmV0tqzoOOipo6aG5aweUd7nOJc5x6y4kqM0oxUSkXd3MoiIom4REQBERAEREAREQBERAEREAREQHwjiqL6Nh3tHdl6FXRAa/rFqlDVxclI6RjcQddhbe4v8ppyzWjaQ2JRu/RVj2fPibJ6HNUsoi0e9xKdbPq+rv5PIhCbYdOPIrInfOiez0OcrdmxOtvnUU/+b6MCndFTrZEd1EMUuxGQkcrWsA6QyEuPcXPFvAraNDbI9HwkOlElQ4Z++usz7DAAR1Out/RYdST4jdRSpaZkbAyJjWMaLBrAGtaOAAyCqoi0NgiIgCIiAIiIAiIgCIiAIiIAiIgCIiAIiIAiIgCIiAIiIAiIgCIiAIiIAiIgCIiA/9k=;" vertex="1" parent="1">
          <mxGeometry x="170" y="113.13" width="23" height="31.1" as="geometry" />
        </mxCell>
        <mxCell id="a0m1b-ZxAtpMWGiJwPaL-3" value="" style="shape=image;imageAspect=0;aspect=fixed;verticalLabelPosition=bottom;verticalAlign=top;image=data:image/jpeg,/9j/4AAQSkZJRgABAQAAAQABAAD/2wBDAAoHBwgHBgoICAgLCgoLDhgQDg0NDh0VFhEYIx8lJCIfIiEmKzcvJik0KSEiMEExNDk7Pj4+JS5ESUM8SDc9Pjv/2wBDAQoLCw4NDhwQEBw7KCIoOzs7Ozs7Ozs7Ozs7Ozs7Ozs7Ozs7Ozs7Ozs7Ozs7Ozs7Ozs7Ozs7Ozs7Ozs7Ozs7Ozv/wAARCAKKAggDASIAAhEBAxEB/8QAGwABAAIDAQEAAAAAAAAAAAAAAAECAwQFBgf/xABJEAACAQIEAwQIAgYGCQQDAAAAAQIDEQQFEiExQVEGE2GRFCIyQlJxgaEHUxVigpKx0SNDVJPB8BYXJDNEcoPh8SU0VWOistL/xAAaAQEBAAMBAQAAAAAAAAAAAAAAAQIDBAUG/8QAJREBAAICAgIDAAEFAAAAAAAAAAECAxESIQQxBTJBE0JRYXGB/9oADAMBAAIRAxEAPwD7MAAAAAAAAAAAAAAAAAAAAAAAAAAAAAAAAAAAAAAAAAAAAAAAAAAAAAAAAAAAAAAAAAAAAAAAAAAAAAAAAAAAAAAAAAAAAAAAAAAAAAAAAAAAAAAAAAAAAAAAAAAAAAAAAAAAAAAAAAAAAAAAAAAAAAAAAAAAAAAAAAAAAAAAAAAAAAAAAAAAAAAAAAAAAAAAAAAAAAAAAAAAAAAAAAAAAAAAAAAAAAAAAAAAAAAAAAAAAAAAAAAAAAAAAAAAAAAAAAAAAAAAAAAAAAAAAAAAAAAAAAAAAAAAAAAAAAAAAAAAAAAAAAAAAAAAAAAAAAAAAAAAAAAAAAAAAAAAAAAAAAAAAAAAAAAAAAAAAAAAAAAAAAAAAAAAAAAAAAAAAAAAAAAAAAAAAAAAAAAAAAAAAAAAAAAAAAAAAAAAAAAAAAAAAAAAAAAAAAAAAAAAAAAAAAAAAAAAAAAAAAAAAAAAAAAAAAAAAAAAAAAAAAAAAAAAAAAAAAAAAAAAAAAAAAAAAAAAAAAAAAAAAAAAAAAAAAAAAAAAAAAAAAAAAAAAAAAAAAAAAAAAAAAAAAAAAAAAAAAAAAAAAAAAAAAAAAAAAAAAAAAAAAAAAAAAAAAAAAAAAAAAAAAAAAAAAAAAAAAAAAAAAAAAAAAAAAAAAAAAAAAAAAAAAAAAAAAAAAAAAAAAAAAAAAAAAAAAAAAAAAAAAAAAAAAAAAAAAAAAAAAAAAAAAAAAAAAAAAAAAAAAAAAAAAAAAAAAAAAAAAAAAAAAAAAAAAAAAAAAAAAAAAAAAAAAAAAAAAAAAAAAAAAAAAAAAAAAAAAAAAAAAAAAAAAAAAAAAAAAAAAAAAAAAAAAAAAAAAAAAAAAAAAAAAAAAAAAAAAAAAAAAAAAAAAAAAAAAAAAAAAAAAAAAAAAAAAAAAAAAAAAAAAAAAAAAAAAAAAAAAAAAAAAAAAAAAAAAAAAAAAAAAAAAAAAAAAAAAAAAAAAAAAAAAAAAAAAAAAAAAAAAAAAAAAAAAAAAAAAAAAAAAAAAAAAAAAAAAAAAAAAAAAAAAAAAAAAAAAAAAAAAAAAAAAAAAAAAAAAAAAAAAAAAAAAAAAAAAAAAAAAAAAAAAAAAAAAAAAAAAAAAAAAAAAAAAAAAAAAAAAAAAAAAAAAAAAAAAAAAAAAAAAAAAAAAAAAAAAAAAAAAAAAAAAAAAAAAAAAAAAAAAAAAAAAAAAAAAAAAAAAAAAAAAAAAAAAAAAAAAAAAAAAAAAAAAAAAAAAAAAAAAAAAAAAAAAAAAAAAAAAAAAAAAAAAAAAAAAAAAAAAAAAAAAAAAAAAAAAAAAAAAAAAAAAAAAAAAAAAAAAAAAAAAAAAAAAAAAAAAAAAAAAAAAAAAAAAAAAAAAAAAAAAAAAAAAAAAAAAAAAAAAAAAAAAAAAAAAAAAAAAAAAAAAAAAAAAAAAAAAAAAAAAAAAAAAAAAAAAAAAAAAAIJAAAAAAAAAAhuwTT4O4EgAAAAAAAAAAAAAAAAAAAAAAAAAAAAAAAAAAAAAAAAAAAAAAAAAAAAAAAAAAAAAAAAAAAAAAAhtJNt2SMTq3jqV7GKvU72r3MX6sd5srUnZbcANii7ptyu78DKcvW73X2JVSa9+S+oHTBze+q/GyjrVL7zfmB1G0uLKupBe8jmd42tm/qRrvwkvqB0nXpr3jFPGwjwNBy8SjhxepeYG1VxrntF2NjAtunK/xHKdrbyT+jOnlz/opLowNwAAAAAAAAAAAAAAAAAAAAAAAAAAAAAAAAAAAAAAAAAAAAAAAAAAAAAAAAAAAAAAAAAAAQ3YjUBYx1G9LUHv1Dk2VuBiklThZfV9TWqS1eyZq0rfI1X1AlX57fQarf+Rfbj9yrk77f4EEuSvy8ybQ4/4mPVJc/uNUuq8wLtxv/wByuuK5lXKXh5kPV9foBbvF1+5WVS+y/iRv/loi0r8f4FExT5L7nQwDcakovmrmnFW4y+5sYeShUTTuyjpAjiSQAAAAAAAAAAAAAAAAAAAAAAAAAAAAAAAAAAAAAAAAAAAAAAAAAAAAAAAAAQ2kV7xdALlZSsQ6nQpJ3W4Eqrd7NE6mzXqUlNXheMrbNGCljnCfd11aS5gbze/EXRS8ZK99nzRDg+Kl/wBwMhDRiXK7v0ZaU1Hd3+QGKtBtPkak1OL3j5dDfUn7Uto8jG406i9X7AaDqfMjVfg/4G3KjTk2vWv/AAMUsPpfP6bkGJP5k28H5l9KXutk6WuLYGOwsujMlmRZ+HkUUsv8oWXJfYtZ9E/oLPmrAEo9PsZ6T5KPmzCoSv7K8jPTjLa+yKNyjPZRlx5GY01KN7QV+sjNTq32fn1IMwIJAAAAAAAAAAAAAAAAAAAAAAAAAAAAAAAAAAAAAAAAAAAAAAAIIc0uYEkal1KTk2tuPIwup3bSqWafvIDZc0uZXvOiMbd1s/EhVIx4sC87y2Ts+pRVLS0y2fJ9SVO6v13KVJN8gLT5SvZIjvY6rXRhqSvTst79DBhoyhOc68lbhG38QN1Ss2t+qMWIpwrxWqJZySSb5fdEOWpXim4vm9gNBVa2Dnpd5U+qXI3qNVSSle0ZcnyKSV161rr3VvcjRyUXBPg2Bncrvbi+KuQvV4u75GONrXjF77OTCfwp9HIC0m17f0SMcnJQ2joV+haMkpWgm3wch6ur2nKT2fQDH38ZPTJ7rmZFU5T3vz5FZRhN6HFp9UY3Sq03pSTj4vcDY0xe6sVcLf8AYwKcovmmZFX6r5AHG3LgQ4L/ACi3eJ8Lrpcaov5dLcgKaPBkqmuhbUuq8hrS9mKfJATpUE+ZMbzdlw5sooyk1e/yMt1HaPHoAk4wWlJXt5iEW3eW7YipXi5bvxLarRsuoGeFSz0szHNnJ348Lm7Qqd5ST5rZgZQAAAAAAAAAAAAAAAAAAAAAAAAAAAAAAAAAAAIbS4sCQV1LqY5Vkna6AzAxKcnwsQ6jtu7eAGSU0jC6213dLqyb7Xf0Kub3SQFnJyWzvfgQpRj7UkY4tp2sY3SU6yqVJuy93qBspp+s+fAo3sNV/Z3S6FZPfjbmgKrpYwdzKpiO8nO0PhtzNiTbd1z5sjVurtO+1kBZyUdny6INvkk/nsUvpV7KNuPVkbSW15tc+QCTjdJt78NJD1RSlH1FwafFk3snFyjFPdKPEhcbqHHbVJgE201FuUl7zQum7SnqvwjFFXPrKUnHlHgG2k/WjTXFLmBa7VnpjDk3zKbb6dU3F3uRdPeMHO/vS4ETnwc52/ViBaTV7Tbu+EYkSateTcU+SKq9rRWi3OXEJrV6r1y8eQFtTkr6tMfuXjJtNQaUebMTaT9d6n0Jd5bz2XTgBfWmratubGppeq2l1fMom2tkox8VuVvzlJWXDcDJs1aUbPoiFRT3jLboit7/APM+FiUm3e9muC6gO6kuFy3dte07C6jdu6fC5SriaWHpudWrCMFznKwGXu+d7/UJO93t8jy+dfiH2fyWOqpiZV6l2lCgtW68Tx+afjDi5xnLK8u00IxV600203y6A1t9YclGN3JRglu29jhZl257N5TV7mvmVOVVL2KfrW+b4I+M1M27W9uMVKhh/ScTGSSlSpN93HxfJHq8r/C/LcooQzDtdmMZK6Sw9NvS5PgrreT8EgOj/rPzfPcSsJ2UyKdae+qpW3jHx22X1Z73L3j/ANGYf9KKisY4rvVRbcFLwOVhM1yjLsLSo5XhYwwTS0KhDad0+CW7d1Z36O5nwubVcfio0qPd0kneUW3OVum20QOrffbfc2MFO03D4ldGs39NyIV1Tqwau7Pe3BIDrghO6JAAAAAAAAAAAAAAAAAAAAAAAAAAAACL2KSqxXO/yAyEXMLqyd7bIxu/G7A2HUivEx61JuTexhlqa2ZSnSevXJN8rcgNjeW97L+JElBwcdK+pGtuKutL4WKq+nd/YCYvQml/ExqleprnKVl7pe+3Xk2yE/rYC8vDfoVbj4/Qi9+G/wAuB4Ttd25nSxkchyH+nx1WoqdSdN7U2/dT+Lq+QHtKeOw1evVoUq8JVaVlUindxvwv5MzLrx8Wcjs1kVHIMqhho2lWk3OtWlvKpN8X/I619Tsk3tzAtq6u7T5EN6eaVuXMhtXs5ceUUOG/qx5O/EA+dk3be7ZDle6clZ72iiL3a9WUrdeAbceMlG3JIAlbdQST5yZGrhecpcmlwIave0G77pydg5JbOez5QQE7w+CFuF92VemTdlKpfnwQ34xha2zcmQ2ns5uTXBQASk0k5SUFw0x4lU3xhG8o8ZTJV0vVgoJ76pblXUjtrqOfWK4AJWe0536KBKvb1aehS5v+RW8o+zCMOjb3KtKTftzv42AmUo+9Uc7crbE6pWs2oRI3Tu5KHgluQtLd4x1P4pASpJP1I38WN2721Px4GKvisPho6sRWhC3WVjz2Y/iH2ey9uEsYqklKzhRWpr6Aenav7Tb/AFVwFo81H5HzrHfitBpxyzLK03w11rQXz/yjzWN7Z9pMelrxscOulCO/32+xWyuK9vUPsWJzLCYKEpYrE06SSu3KS2R5bN/xQyPL4RWFcsfUfCNC23i3yPl2JliMdNSxuJr4l/8A3TbX0XAxt0MO0tUV0ildv6IN8eLMd2nT1OY/ifn2YUJ0cDhoYJyl6tW6bUfk77nmcdi80zFU6uaZlVnGkm1K9vN82dbKOymf53JPD4JYShLfv8UrfVR5/c9jln4f5Dlq7/M6zzTEw3am/VjZXfqLw33HTGZw09dvneUZFi82rf8ApOV1Ma7+tXqpqmvm3xPeZV+GlCKp1e0WPeJepacLRbhSi27cOfE9ZTxdWdJwynD0O5UJqnpdkpRdktlZXW6vyNihgJzrd/iIU3KUJRk2vXlF2ai/GL2DVa82cnH5vhez0MbleX5esJCjhVKOJpxSp06klJQU+l3H2ntfiaOBoSzDFYSrk2IxlSeFgsRUq5k6kod7bTotLdNqUneLsrI79Xszl+Kx3pmMp1MRVlCEZxnN93LTfS3Dg3u+Nzp6owiopKy4JLgGtzsJk9SVHVmlZVq8qk6ko0m1CKla0FffSrebb5nRpqlQjGnShCKXuxVkikpTbfJIbr6IgyK8ram7b7IlJeC26WMadtrchd8Ffh1A62Eqa6KT4x2M5zcBUarOHKS+6OkAAAAAAAAAAAAAAAAABDaSu3ZGvPFJu0F9QNki66mn3spO7b6k368kBta4r3kVdaC8TXvbfoib8bdAMrrdIlXVm+dinUo6tNK7mrN6dnzAyNt3vuOTMbqesoqEne+9tlYiM5tK8FHqtV7AZepD5/MxpVbetNXTv6sbXXTcKFlJOTkpO/rSvbwAlzhF6ZTV3uk3uY1iIzwrr0IutFx1RUdtXmTCjSgoKFOK0R0xtHdLpcvfqvNgYZPEzdSMHTpK0dEvad+d19iZUIzdTvJSlGbT0yl7NulvMyX4cX8lYi9uaXy3YFnvy485C91feX2RXhva3jJnj+2vafFYOrTyHJm6mZ4uN5VEtsPT5y+fQkzrtlWs2nUMPajtPisXj5ZBkVVqrFf7ZioLahH4U/i/gcH8N8ow+N7QY3NqUdOFwj7nDp7uUmrOT8bf/sUlQpZNkmIjTrOnOnRnOTveVSdt23zbPT/hfhlhuw+FmlGLrznUlJ8W9Vv4JGuluUzLs8jDGGkV/Z9vYezHZWt1Ivdc526cCHuto6vF8CHNW9aXhpRtcKz2v62nnZbjxSST4OTKptLlBLrxIunfSnUa332Au5KVrtzv04EbxV/VhbbdblHN2tKSjflAiL5xg99m5AS3GV0tVRr6DU4q11Ti99tyrbl7VVNdIoabLaC23TkwIdSLa9qbe2/AXklxhC3Td2IlNX9abbfJGlj86y/LFfFYqhQfSc1q8gNxwTvaMpc1djVpvqko35RR4vM/xLynDxnDCOrjq8eFOktvq+CPP4v8RM8xcJwweBoYRSj6s6ktco9XZcRuGdcd7/WH1GVanBatn1cjn4/tDluX0XUxePoUYpXtrV38lfc+R4rH51mOp43N8TKM46ZQpy7uLXRpGnTwGHpPUqScur3f3JydVPCyT76fQcb+J+VU5OGX4bEY522nGFo+crHnMw7ddocwbjRlSwNN7Wi9UvNWOPpVtt2HCyd7W8GTbqp4VI+3bBiHisY3PF4qvXb46p2XkikMLTpx9WNt+SsXr4rD0NpySb4R4vyRvZbkWf5608DgJUqT/r8R6q+i/wDJlC2nBiaTjGEHwsuPJW+ZTD95jq/c4DC1sXVfu0Y/xZ77KfwuwkZRq5xiamPn+XF6acT2uCyvB5fRjQw2HhQpr3KUbL+bK5cnl2n6xp8zyz8OM7x8lPMsRDA0nxp0nqn9We3yTsTkmRuMqGCjVqrd1q3rSPQxpxSXq6VyTMndr/wHHa9re5aVbDzqYql60nRnGUZQu1p22e3Hmt7l6GBSnCtiJU61alFwhNRcXpa3vu734m57KvuuhDnukkpeJGKKeHpUYqNOmopJeyS5K1k73KXvdydi/CWz4dUBDjJ3bVl0QVFJrw43Ra60223ZOrd/zAx93G19uPiHTW9vsy7b24lG1aW/2ArKNr2vwMctr7cuZeb3fDgYpvj8gL0KihiYSvb1jtnnZPiz0K4ICQAAAAAAAAAAAAAArOWmEpPkmwOfjsU3WVGL2jvLxMUan0sjiZfnNDNNVejNPVJ3XNM69NWV5f8AgLMTHtsp3Tf3Ze6s7swa9r8L8+bJ1Wvbb+IRn1W8PsL8TDdq79nx4ss5cW/OQF5aW03ZuPDe5EYRgmoQUE3fZJK4ve9r/TYi6v7q263AvqvfdfxF348PkVTvbeT+SsPnHzkBN1+r9XcKa2s/KJTWl70FZ8kNXFapv6AW1S+CT+bDkovjFb9LlbN39R/WQu170Y36bsCzu77Sf2IbtteMb8luyE9VnaUvFuwu0vdj92Bze0Od0Oz+S4jM68dXdxtTjJ71JvaMV9T5zltCqlWzDM8Q6uOx0teI0buN+EfBLbhwN3tJmH+kXa/0aEr4HJn73s1cQ/5FnJuMpNRpwe0mryav0fJnLmv3xh7Xx/j6r/JP/GLHYepXy/FYd01TdSlJXl7Utrc+J1vwqzGGK7JQwi/32DqyhJN8E3dP+PkctKDiu6U5y4qU1snzuv8ANzj4XMKvYvtHLNIpVcvxb04qlTf+7fW338yYbRE6Z/IYZtSLx+PsV09m9b6IXlDkoRfO5rYLH4bMcLDEYKvTq0Jq6nAzJq/qR1PqzreERabvCLnybfASlZLXUVk+C6ETlFv15Nt8kVUucYxiurAtqa9imo802yrepu8pSbXBEXV97yfgc3Mu0eV5TFvGY6jQtvpcvW8uIHTTmuDjBdOZWTivabmzwWP/ABRwivHK8vxGOlynL+jh99zh4rtZ2tzS8IV6OXU3yoQvL95kmYhtphyX+sbfU8RjaGEpOpWrU6FNK7lUkkvueKz3tZ2FxknTxVCGZ1Xtqo0HJr9rY8TPK6eJq99j8XWxtXnKrNyNqnhIUY/0dKMIr4VZGE5I/HbT47JP2nTg1sJWrZlVrZbhp5fhpv1KVSpqaXidTDxxMaVsRUhOS4OMbG33aV+V9nsUdOS4Jt8bGPLb0cXj1wx1MsLlG/B3tbhwD9VN32XJ9C86VRxdrRdtm1ff5HHxOExUa8K9eSxeHjNOdKMtF1zsZQxzZZxxuI23FjPSK3o+CoVMVVk7aaMb7/M7+W9gc8zPTPMsRDLaMt9EHeo0el7H572cxKhgsvws8urtWdKVHeX7avf6s9lCMVfu4tu/GRsiNPHyeTkv/h53JOw2SZPadDCRrVedbELU7+Fz0apxVl7VuCjwRZp765X/AFUWSuto6V15lc2y1lutK6RLRVlt6q8eZCsuD36hu27AunFePix3l/ZVyid36qv8yW5JrV9iC1pPdu9iLrdtWuRd247C/OXACdttxqe+/wAyvO1t2Q9KSXQC93t0Icnvtv8AIrs3dvYr8nv9wLar22IbSTTElZ+1/wBiHezd7sCsmnz5FGr7r7Mvqk3sk9iNT5009gKuLtZ8zvx9lfI49DROoopNHY4ICQAAAAAAAAAAAAApUhrpzh8SaLkAfDsRhcw7M5vWWErtOnOz28rrmehyzt/T2hmlGVNrbvKe8fqj2efdnaeYqVejCCrtesmvb/7nz7M+zSpylGUVTmuMd015mPG2+noUvjyxq/t7fBZphcfTVTCYiFZPjKLvb6cjbjVVtm0up8jjlmMwM+9wlacXf2oSs/NHYwHa7NMHanioxxMI/F6k/PgxuY+0ML+J+0nb6PGfNequvMup815s87l/anLsc4xlWeHqvhCt6u/g+DO1GpdKT36dDKJifTktS1Z1aG1GerrLxfAspLqk/BGsqluLb8EXVT9ZRXggxZ+PxP6hq1/Vh9WY1JPgm/qSpeEV8wLauWuP7o1X5zd+hGv9dL5Iar85P5ALf/W3/wAzG8VxhBINJ8YyfzYStwjFX4gQ2pX3lU52Wxze0uavIuzuOzJRUJUaTcG/je0fuzpt9an0SPEfipJ/6N4TCpNLE46nBpvit3/gSeoZVjlMQ8z2fpRw+VU+87ypiK96tWTdrTe+/X+J0m5reUoakrWu29L/AIlJVZwgo1KijD2dFNritvoY1O6tBaV8UpW1HnzO52+upTjWKx+LzalG1TVpfrRtG+/8vmYaiVSm4RipRa0y1pSTXK1/4Cc9KvKetvio3VnzVilRp7SWhrgmrO3K5GzTnYehj8ixEsRkGYTwuveVH2qUvod3D/iJn+Hhox2TYfEW9/D1dLf0Zz5Tfuq8Xu21u+u5ikk3u25c7m6uW0OLJ8fhvO9a/wBO3/rNxCuo9m6urxxMf5GviO3vaHEr/ZcsweFT96tUdRr6Kxy9PSC8GO7g95ydnxXAy/ms1R8Xhie5lTGZr2gzK8MZnlZxfGjhI92vNGpSyXDwaqTjF396o9UvudKKqcIwUbcGwqVLknN35v8AzYxnJaW+niYaeqsNOnCLXd0G31tZeRd0+CnVfhFbGfRU5tJdIriTGnbaMEvFox26OoYFCXKml4t72Doxum5NvirMzyUYrVOd0uN2kjDSxFXGVXRyzCVcZUXHuo7L5vgjOImfTTkyUpG7TpXuW+SS4GtiK2Fw206kdS5R3Z6TBdhc5zB68zxkcFSf9VR9ab+b4L7nqMq7G5LlGmVDCRqVl/XVvXl/JfQ3Rjn9eZl+Qj+iHznA5NnmdyXoGXyp0W/99XWmP34/c9Plv4ZYeE1WzjGSxU1/V07qK/z9D3elcG2xa3CKXibYiIebkz5Mn2loZflOAyum6eAwcKKlu2lx+bNxqT2lNJW4Iv8AOTYUekF9StKiik1ppv8A5mTbq7+Ba3WT+SLJPkgMSc3xio+I9RWteTMrin7TuSotbKKXiQY/6SXH1EQ1GLvJ6n4GTR8Ur+AUVf1Y/VgU47yW3JCz9pxV+hk025tv+BOlp3963EDFpd7Xbk+a5C3JK1uPiZdPJfUjT9IrzAxWur2bhyQ3tdt3fC3IyOK1KT+hOmzv7zAxaXw4P3n1Itz3aXDwMui3qrnxIa3uuXADG48ntzlYizfK1zJp5cCVEqL4Wn/SR+dzpGrhYWd+htEUAAAAAAAAAAAAACCQBFjDicJh8XDRXpRmuV+K+T5GcAeWzXsw40p1cJWnJRTbpzbb+jPB46EINuTbXhb+R9kaurdT45j6E6MXWp4mnWpSnJPTJPS78GZcutS6MWSatB1MKoX0SsuPBpm5l+f1MEk8LialOPwVI3iaLwEsXUhDCRk69RpRjDm/ke9yz8OVhsOvSMyk6kl/SU4UouF/2v4mE7dk+Rj46t218B2toVY/7XQafOdJ6l5cTr4fNctxDvDG0k3wjJ6X9zWxX4b5fVpp4fE1KFZe9Feq/pyPP5h2K7QYBN0JU8ZSXOLV180ybmGnh4+T1OntVeavCWpdUyfZ4q/zZ8upZjUw0tMXOE4uzdOTjv5nZwHarF0mozxHfR6Vlf7rcsTst4do7rO3ulUfJJFlN85eRxcD2lwWKahVSoz6p6o/z+x2IKFaKnTnGUXwad0ZaclqWp7hbvI/FJkqS5Q8yO6XUOm1wDBbU/iSPEfilG+R5fX3lGjmFNy8E00e07p8WcjtXk7zrs1jcBGN5zhqp/8APHdEmNxplSeNol4VTtd0YX+JzV7EVJq+mtUcnyS3SXzNbLIY/G4OnOWGrKolacXBq0ls7nUo5FmNWPqYOp85Rsefxnen18ZacYttp6521UoqnF8r3v1McnFWTlra5o6s+zWZJOpWVOlHnKpNI13gKNPaePw/D3W5fdIcZ/skZ8U+pc93bvsvBciNO9pbW/zwOj6HhL/+/p79Iz//AJCwuCW7x0G10pz/AJDjK/zUaEacn7PB8OdjLGmuOnfnzub0aOCXHG+VORaNPA88ZL+6ZeMsZzVaapu1tVy2l9LfIzYhUKNNzpVXV8NDT+5s5T2ezHO6UcTOvTwOFlw0tVKsv8I/cyrS0zpqy+Tjx15S5datQwqUqk1Hpd7v5dTawWUZ3m7XouBeHoP+vxS0r6R4s9plnZrKMpl3tDDd5X51671zf1fD6WOs6iOiuGI9vHy/IZLdU6h5jAdgsvpTjVzKtUzGot9M/Vpr5RX+Nz0tDD0MLTVOhRp0oLhGEUkO8RDqo2608+1rWncyy3FzD3qDrJcysWZ782NjB366jv10A2L+I2MHfePkSqi2uQZ7rkTYwqpw3LKotgM3ysTb5mHvVbiS60Ur3Ay2XQGu8Sr7W+pHpP63kEbNkuX1DcUuKSNTv11Y71MDYdSP/gh1eiZgdRIjvblNs3eyveyKudTlZGLvPEd6DbJrqdUSpz5pMx67k60Bk739V/RllUV+DMSkjNQpurNJcObA6FGOmkvHcyEJWViSKAAAAAAAAAAAAAAAAAACGfC+1vYTPshxeIx2FlPFYWcnPvaOzjd8JRPupD3VgsTp8i/CahisVnlfE4qMtFChqg5R4yk7XX0v5n10hRUVaKSS5JFhPaBBJAHyLtXleFw2e4mnCDhFy1WT4X3OHToQU7d5K3Rnru3FB1O0/dRdnVhG1+p5utga2DxGitGz69STWJdmPPMR3LBUjUp+x6y8DLgM6zPD1bYGvW1rfRFOXmikYudTTDeTdkvE+s9lez67P5V3E3TniJyc6lSMbXvwX0RJq2W8nUdxt4nB/iHWoVO6zXB7rjKmnGS+cWeoy7tLlWZpei4yEpv3JPTLyZ185yDLs9wkqGOoRnt6tRbTg+qZ8R7U9nMf2XzT0epLvKU/Wo1kra1/NCNw0TbFf81L7Uq0XzJU0z4XhO1Od4Kyo4+rpXuzepfc9HkXbHtRmmMWDwmDpYys1e1tNl1bvZF21TSPyX1K0bnBzXtLRwynRwWipWjs5e7F/wCLORic07Xzw9XD1Oy+Jg5xce8pVL2uuKsjxuNwOcZXh41MdgMTh6cnbVOFkyTbX46MGKkzu8u9iMRUxbdbE4p1pPxvY1NSXyOLg8y0zUZO8XxR03USV+Qtx4RNfb0ufGGdSRDmlwRr99EsqsdtjVwtKWyzELzqyts0voaksTUk7RfkdXLMpxGe5jTwOH9WL9arUttCPU+h4TsTkWEhFLCOo0uNSbdyxSf1qnza0j0+WYfD4vFzUKUZzb2sj3eQYWWUZasPOd6kpOUrPZN8j1VPJ8vpK0MNCK6K5mjgMJHhh6f7psisQ4s/lWyxr8cB4lvmR3zZ6NYehHhRgv2UXVOC4RivoZ7cjzalOXCEn8kZFQxMuFCo/wBk9DYkDgLAY2X9U19UXWVYprfSvmzuAg46yivbepBeZb9Dz511+6dYActZP1rv6RLfoiO39PLyOkAOc8pjp9WtLVyutjUq5fjYStCOtLnqSO4APNVMPjoRk5UWrK/zNFYibbUm7o9kzxuarucdK3vX4dUywxldVnzZeNbxOUq829jNTqTb3KjoOu0upn9DzGyaw0t/FFsjwixNd4iavCk/V8ZHoibWIeSr1MTh5aa1OULcbmejVUom5nNLvMTCH5sGvqjh0qsqacWnsDToKpeo0X1bnM7+UZatLMkcVJtbFG86lmkZKUZ1pqEFds0U5Sd27HoMrwvcUFUl7c/siCtDLpLepK3gjep04042irFwRkAAAAAAAAAAAAAAAAAAACCHq5AWIuYZ97yia1V4n3YSA3tcVxaIdWmuM4+ZwcTPHJPTTqfRHKxFXMl7tVfssD2LxNFcasfMj0vDr+uj5nz6tjMxjdPvl+yzVlmOMTd51VbwYHY7X9kV2hx/6Qwmbww9ZUe70Ti3H53XDifLsfhO0vZ3EOOLVaVOm7RqO9SnJeDPayzbFJb1ahrVM5xFrOc2ud2WJmF24vYuviMf2mwEK9JOhKtrlU0u1o3fH6H3D07DfmxPkkM4rQSjC8YrglsjPDOq1uMvMkkzt9U9Nwz/AK6PmcHtdkeE7T5fToxxyw9ehJzpVLKSvbg0+T2PHxzqvyi39SzzjFJXVP8A/II85W7B9plmPcywmEqQldqtRrJQXnuj6V2DySl2cyPu8U6UcbXm51mpJ25JX6W/ieVl2hxUXbuXf5hdoMbLhSsyaH1H0mh+bDzOB25r0V2TxlZONR0Up6eN1ff7M8c+0GPXGnY08b2lzGNF2jpvzKPM4ihhKmNnHLnNxhTpymm16spRTaXhc34KUcMlPZ25nP72lRw+Y1oQ7vE1qL0Sit3PUn/M4kc6xUoWrYpuXAkV7boy21p6ulBTV21Y6by+eGwixFWDjB8G+DPnqzjGQt3eLkknc9flOe5lnuR1sJjm8Q6TUaNXTaW7V7vg7K4ZWyS+qdi8BSy/JYV6jiq+LtUk+kfdXl/E9D31L44+Z4alm2mEYRbSikkkZ45q3u2180VomdvZ97T+OPmO9p/HHzPILM/H7F1mL6ryCPWd7T+OPmO8h8cfM8r6e+kWSsdJ+6gPVd5D44+Y7yHxx8zy/pr5xQ9N/VA9P3kPjj5jvafxx8zzPpn6g9M/U+4Hpu+p/mR8x3tP44+Z5n0z9UPFv4H5gem72n8cfMd7T+OPmeZ9Ll+Wyvpkvg+4HqO9p/mR8x3tP44+Z5X0x/D9yrxsvhXmB6zvafxx8z572hz2jgMdWjiKc6l69WNPRbayg/8AFnSlmMo8kzy/aiFPN4w11pUZ0k+7cVtd2vfyAiXbTLKT/wDa4hqyvwv48zu4bG4PMctp4rB1LxrT0R1KzT4tfQ+aSyLHt2jmFB/PUv8AA9L2foYnCZbHC18VTTjVlNaFe11biB9XymjDDZbQp6k246m78W9zd1R6rzPDU8zelRjNWircSzzSceNT7sDtdoMT6NmOVSX9ZXcHv1scrD6MXicYqLuqVVq5y8xzRVe6bcZSpT1QcrvS+qOBmeZvLuzeLjQrNVZuCbvu1d3f3CPV4nM8pwkZxrZjh+8in6qnqd7eBzKParLFqcpzbt7sD5jDG4io7QoTl8os3KVHMMStMMLUi38TUUvMRCvsmSV8NnCp1MPNyg5esmrONuTPVqyVj5X2NWLyLCVVVrRdStJPTF30/U9dRzzESt61wPTg5NDMq0+K+xvU68p8YgbAKp35FgAAAAAAAAAAAAAAAAAAAAAAAAIsuiIcIPjCPkWAGN0aT40oP9lEPC4d8aFJ/sIygDA8FhXxw1H+7RHoOD/stH+7RsADWeX4J8cJQ/u0Q8swD/4Oh/do2gBqforL3/wVD+7RH6Ky/wDsVD9xG4ANP9EZc+OCofuIpLJMrn7WX4d/OmjfAHMfZzJZccrwr/6SK/6L5D/8Pg/7mP8AI6oA5a7NZHHhlGDX/Qj/ACM8MmyykrU8Bh4LpGmkboA1ll2CXDC0v3ET6BhP7NS/dRsADB6Fhf7PT/dRPomH/Ip/uozADF6LQ/Jh+6h6NQ/Kh+6ZQBi9Fofkw/dI9Fofkw/dMwAw+i0PyYeQ9FoflQ8jMAMPotD8qPkPRaH5UfIzADD6Jh/yY+Q9Ew/5MPIzADD6Jh/yYeQ9Ew/5MPIzADB6Hh/yYeRV4DCPjhqb/ZRsgDV/RmB/slL9xD9G4Jf8LS/cRtADW/R2D/stL91Efo3BP/haX7qNoAabynL5e1g6L+cEY5ZFlM/ay7Dv500dAAc7/R7Jv/jML/dIlZFlMd1l2GX/AE0dAAasMswMPZwdGPygjLHC4ePs0aa+UUZQBVQguEUvoTZdCQAAAAAAAAAAAAAAAAAAAAAAAAAAAAAAAAAAAAAAAAAAAAAAAAAAAAAAAAAAAAAAAAAAAAAAAAAAAAAAAAAAAAAAAAAAAAAAAAAAAAAAAAAAAAAAAAAAAAAAAAAAAAAAAAAAAAAAAAAAAAAAAAAAAAAAAAAAAAAAAAAAAAAAAAAAAAAAAAAAAAAAAAAAAAAAAAAAAAAAAAAAAAAAAAAAAAAAAAAAAAAAAAAAAAAAAAAAAAAAAAAAAAAAAAAAAAAAAAAAAAAAAAAAAAAAAAAAAAAAAAAAAAAAAAAAAAAAAAAAAAAAAAAAAAAAAAAAAAAAAAAAAAAAAAAAAAAAAAAAAAAAAAAAAAAAAAAAAAAAAAAAAAAAAAAAAAAAAAAAAAAAAAAAAAAAAAAAAAAAAAAAAAAAAAAAAAAAAAAAAAAAAAAAAAAAAAAAAAAAAAAAAAAAAAAAAAAAAAAAAAAAAAAAAAAAAAAAAAAAAAAAAAAAAAAAAAAAAAAAAAAAAAAAAAAAAAAAAAAAAAAAAAAAAAAAAAAAAAAAAAAAAAAAAAAAAAAAAAAAAAAAAAAAAAAAAAAAAAAAAAAAAAAAAAAAAAAAAAAAAAAAAAAAAAAAAAAAAAAAAAAAAAAAAAAAAAAAAAAAAAAAAAAAAAAAAAAAAAAAAAAAAAAAAAAAAAAAAAAAAAAAAAAAAAAAAAAAAAAAAAAAAAAAAAAAAAAAAAAAAAAAAAAAAAAAAAAAAAAAAAAAAAAAAAAAAAAAAAAAAAAAAAAAAAAAAAAAAAAAAAAAAAAAAAAAAAAAAAAAAAAAAAAAAAAAAAAAAAAAAAAAAAAAAAAAAAAAAAAAAAAAAAAAAAAAAAAAAAAAAAAAAAAAAAAAAAAAAAAAAAAAAAAAAAAAAAAAAAAAAAAAAAAAAAAAAAAAAAAAAAAAAAAAAAAAAAAAAAAAAAAAAAAAAAAAAAAAAAAAAAAAAAAAAAAAAAAAAAAAAH//2Q==;" vertex="1" parent="1">
          <mxGeometry x="229.88" y="39.999999999999986" width="29.25" height="36.57" as="geometry" />
        </mxCell>
      </root>
    </mxGraphModel>
  </diagram>
</mxfile>
